<?xml version="1.0" encoding="UTF-8" standalone="no"?>
<svg
   xmlns:dc="http://purl.org/dc/elements/1.1/"
   xmlns:cc="http://creativecommons.org/ns#"
   xmlns:rdf="http://www.w3.org/1999/02/22-rdf-syntax-ns#"
   xmlns:svg="http://www.w3.org/2000/svg"
   xmlns="http://www.w3.org/2000/svg"
   id="svg1178"
   version="1.1"
   viewBox="0 0 13.514282 15.605"
   height="15.605mm"
   width="13.514282mm">
  <defs
     id="defs1172" />
  <metadata
     id="metadata1175">
    <rdf:RDF>
      <cc:Work
         rdf:about="">
        <dc:format>image/svg+xml</dc:format>
        <dc:type
           rdf:resource="http://purl.org/dc/dcmitype/StillImage" />
        <dc:title></dc:title>
      </cc:Work>
    </rdf:RDF>
  </metadata>
  <g
     transform="translate(83.721255,-243.84036)"
     id="layer1">
    <g
       id="g1191-5-67"
       transform="matrix(0.53617572,0,0,0.53617572,-120.69226,169.74079)">
      <g
         id="g1111-2-5"
         style="fill:#babdb6;fill-opacity:1"
         transform="translate(-102.89877,-60.242551)">
        <path
           d="m 177.58031,223.57813 -2.29135,-1.32292 v -14.55208 l 2.29135,1.32291 z m 3.43704,1.98437 v -17.19791 l -2.29136,1.32291 v 14.55208 l 2.29136,1.32292 m -9.16543,-19.84375 2.29136,-1.32291 6.87408,3.96875 -2.29136,1.32291 z m 0,14.55208 v -14.55208 l 2.29136,1.32292 v 14.55208 z"
           style="fill:#d3d7cf;fill-opacity:1;fill-rule:evenodd;stroke:none;stroke-width:0.26458332px;stroke-linecap:butt;stroke-linejoin:miter;stroke-opacity:1"
           id="path893-9-35" />
        <path
           d="m 178.72599,201.75 2.29135,-1.32291 12.60248,7.27604 -2.29135,1.32291 z m -3.43704,1.98438 14.89383,8.59895 1e-5,-2.64583 -12.60248,-7.27604 -2.29136,1.32292 m 21.76791,1.98438 -1e-5,2.64583 -6.87408,3.96875 1e-5,-2.64583 z m -12.60247,-7.27604 12.60247,7.27604 -2.29136,1.32291 -12.60247,-7.27604 z"
           style="fill:#d3d7cf;fill-opacity:1;fill-rule:evenodd;stroke:none;stroke-width:0.26458332px;stroke-linecap:butt;stroke-linejoin:miter;stroke-opacity:1"
           id="path893-5-0-6" />
        <path
           id="path953-2-2"
           transform="matrix(0.26458333,0,0,0.26458333,0,87)"
           d="m 736.12109,468.70117 -47.63086,27.5 8.66016,5 15.1543,-8.75 -23.81446,23.75 v 10 l 8.66016,5 47.63086,-27.5 v -10 l -47.63086,27.5 47.63086,-47.5 z"
           style="fill:#d3d7cf;fill-opacity:1;fill-rule:evenodd;stroke:none;stroke-width:0.99999994px;stroke-linecap:butt;stroke-linejoin:miter;stroke-opacity:1" />
      </g>
      <g
         id="g1106-3-9"
         style="opacity:1;fill:#555753;fill-opacity:1"
         transform="translate(-102.89877,-60.242551)">
        <path
           id="path1067-8-12"
           d="m 184.45439,224.90104 v 2.64584 l 12.60248,-7.27605 V 217.625 Z"
           style="opacity:1;fill:#ffffff;fill-opacity:1;fill-rule:evenodd;stroke:none;stroke-width:0.26458332px;stroke-linecap:butt;stroke-linejoin:miter;stroke-opacity:1" />
        <path
           id="path1069-0-7"
           d="m 182.16303,218.28646 2.29136,1.32292 12.60248,-7.27604 -2.29136,-1.32292 z"
           style="opacity:1;fill:#ffffff;fill-opacity:1;fill-rule:evenodd;stroke:none;stroke-width:0.26458332px;stroke-linecap:butt;stroke-linejoin:miter;stroke-opacity:1" />
        <path
           id="path1071-4-0"
           d="m 171.85192,205.71875 2.29136,1.32292 v 14.55208 l -2.29136,-1.32292 z"
           style="opacity:1;fill:#ffffff;fill-opacity:1;fill-rule:evenodd;stroke:none;stroke-width:0.26458332px;stroke-linecap:butt;stroke-linejoin:miter;stroke-opacity:1" />
        <path
           id="path1073-0-93"
           d="m 175.28896,207.70313 2.29135,1.32291 v 14.55209 l -2.29135,-1.32292 v -14.55208"
           style="opacity:1;fill:#ffffff;fill-opacity:1;fill-rule:evenodd;stroke:none;stroke-width:0.26458332px;stroke-linecap:butt;stroke-linejoin:miter;stroke-opacity:1" />
        <path
           id="path1075-9-60"
           d="m 181.01735,208.36459 -2.29136,1.32291 v 14.55208 l 2.29136,1.32292 v -17.19791"
           style="opacity:1;fill:#ffffff;fill-opacity:1;fill-rule:evenodd;stroke:none;stroke-width:0.26458332px;stroke-linecap:butt;stroke-linejoin:miter;stroke-opacity:1" />
        <path
           id="path1071-0-1-6"
           d="m 197.05686,205.71875 -2.29136,1.32292 -12.60247,-7.27604 2.29136,-1.32292 z"
           style="opacity:1;fill:#ffffff;fill-opacity:1;fill-rule:evenodd;stroke:none;stroke-width:0.26458332px;stroke-linecap:butt;stroke-linejoin:miter;stroke-opacity:1" />
        <path
           id="path1073-2-9-2"
           d="m 193.61981,207.70313 -2.29134,1.32291 -12.60248,-7.27604 2.29135,-1.32291 12.60247,7.27604"
           style="opacity:1;fill:#ffffff;fill-opacity:1;fill-rule:evenodd;stroke:none;stroke-width:0.26458332px;stroke-linecap:butt;stroke-linejoin:miter;stroke-opacity:1" />
        <path
           id="path1075-3-6-61"
           d="m 190.18278,212.33333 v -2.64583 l -12.60247,-7.27604 -2.29136,1.32292 14.89383,8.59895"
           style="opacity:1;fill:#ffffff;fill-opacity:1;fill-rule:evenodd;stroke:none;stroke-width:0.26458332px;stroke-linecap:butt;stroke-linejoin:miter;stroke-opacity:1" />
      </g>
    </g>
  </g>
</svg>
